<svg xmlns="http://www.w3.org/2000/svg" viewBox="0 0 850 160" width="100%" height="100%">
  <!-- Minimal Pure Dark Background -->
  <rect width="850" height="160" rx="10" fill="#09090b" stroke="#27272a" stroke-width="1" />

  <!-- Clean Retro Pixel Font in Solid White / Crisp Off-white -->
  <g fill="#f4f4f5">
    <rect x="114" y="56" width="6.5" height="6.5" />
<rect x="121" y="56" width="6.5" height="6.5" />
<rect x="128" y="56" width="6.5" height="6.5" />
<rect x="135" y="56" width="6.5" height="6.5" />
<rect x="114" y="63" width="6.5" height="6.5" />
<rect x="142" y="63" width="6.5" height="6.5" />
<rect x="114" y="70" width="6.5" height="6.5" />
<rect x="142" y="70" width="6.5" height="6.5" />
<rect x="114" y="77" width="6.5" height="6.5" />
<rect x="121" y="77" width="6.5" height="6.5" />
<rect x="128" y="77" width="6.5" height="6.5" />
<rect x="135" y="77" width="6.5" height="6.5" />
<rect x="114" y="84" width="6.5" height="6.5" />
<rect x="114" y="91" width="6.5" height="6.5" />
<rect x="114" y="98" width="6.5" height="6.5" />
<rect x="163" y="56" width="6.5" height="6.5" />
<rect x="170" y="56" width="6.5" height="6.5" />
<rect x="177" y="56" width="6.5" height="6.5" />
<rect x="170" y="63" width="6.5" height="6.5" />
<rect x="170" y="70" width="6.5" height="6.5" />
<rect x="170" y="77" width="6.5" height="6.5" />
<rect x="170" y="84" width="6.5" height="6.5" />
<rect x="170" y="91" width="6.5" height="6.5" />
<rect x="163" y="98" width="6.5" height="6.5" />
<rect x="170" y="98" width="6.5" height="6.5" />
<rect x="177" y="98" width="6.5" height="6.5" />
<rect x="198" y="77" width="6.5" height="6.5" />
<rect x="205" y="77" width="6.5" height="6.5" />
<rect x="212" y="77" width="6.5" height="6.5" />
<rect x="219" y="77" width="6.5" height="6.5" />
<rect x="247" y="56" width="6.5" height="6.5" />
<rect x="254" y="56" width="6.5" height="6.5" />
<rect x="261" y="56" width="6.5" height="6.5" />
<rect x="240" y="63" width="6.5" height="6.5" />
<rect x="268" y="63" width="6.5" height="6.5" />
<rect x="240" y="70" width="6.5" height="6.5" />
<rect x="268" y="70" width="6.5" height="6.5" />
<rect x="240" y="77" width="6.5" height="6.5" />
<rect x="247" y="77" width="6.5" height="6.5" />
<rect x="254" y="77" width="6.5" height="6.5" />
<rect x="261" y="77" width="6.5" height="6.5" />
<rect x="268" y="77" width="6.5" height="6.5" />
<rect x="240" y="84" width="6.5" height="6.5" />
<rect x="268" y="84" width="6.5" height="6.5" />
<rect x="240" y="91" width="6.5" height="6.5" />
<rect x="268" y="91" width="6.5" height="6.5" />
<rect x="240" y="98" width="6.5" height="6.5" />
<rect x="268" y="98" width="6.5" height="6.5" />
<rect x="289" y="56" width="6.5" height="6.5" />
<rect x="317" y="56" width="6.5" height="6.5" />
<rect x="289" y="63" width="6.5" height="6.5" />
<rect x="296" y="63" width="6.5" height="6.5" />
<rect x="317" y="63" width="6.5" height="6.5" />
<rect x="289" y="70" width="6.5" height="6.5" />
<rect x="296" y="70" width="6.5" height="6.5" />
<rect x="317" y="70" width="6.5" height="6.5" />
<rect x="289" y="77" width="6.5" height="6.5" />
<rect x="303" y="77" width="6.5" height="6.5" />
<rect x="317" y="77" width="6.5" height="6.5" />
<rect x="289" y="84" width="6.5" height="6.5" />
<rect x="310" y="84" width="6.5" height="6.5" />
<rect x="317" y="84" width="6.5" height="6.5" />
<rect x="289" y="91" width="6.5" height="6.5" />
<rect x="310" y="91" width="6.5" height="6.5" />
<rect x="317" y="91" width="6.5" height="6.5" />
<rect x="289" y="98" width="6.5" height="6.5" />
<rect x="317" y="98" width="6.5" height="6.5" />
<rect x="338" y="56" width="6.5" height="6.5" />
<rect x="345" y="56" width="6.5" height="6.5" />
<rect x="352" y="56" width="6.5" height="6.5" />
<rect x="359" y="56" width="6.5" height="6.5" />
<rect x="366" y="56" width="6.5" height="6.5" />
<rect x="352" y="63" width="6.5" height="6.5" />
<rect x="352" y="70" width="6.5" height="6.5" />
<rect x="352" y="77" width="6.5" height="6.5" />
<rect x="352" y="84" width="6.5" height="6.5" />
<rect x="352" y="91" width="6.5" height="6.5" />
<rect x="352" y="98" width="6.5" height="6.5" />
<rect x="387" y="56" width="6.5" height="6.5" />
<rect x="394" y="56" width="6.5" height="6.5" />
<rect x="401" y="56" width="6.5" height="6.5" />
<rect x="394" y="63" width="6.5" height="6.5" />
<rect x="394" y="70" width="6.5" height="6.5" />
<rect x="394" y="77" width="6.5" height="6.5" />
<rect x="394" y="84" width="6.5" height="6.5" />
<rect x="394" y="91" width="6.5" height="6.5" />
<rect x="387" y="98" width="6.5" height="6.5" />
<rect x="394" y="98" width="6.5" height="6.5" />
<rect x="401" y="98" width="6.5" height="6.5" />
<rect x="429" y="56" width="6.5" height="6.5" />
<rect x="436" y="56" width="6.5" height="6.5" />
<rect x="443" y="56" width="6.5" height="6.5" />
<rect x="450" y="56" width="6.5" height="6.5" />
<rect x="422" y="63" width="6.5" height="6.5" />
<rect x="450" y="63" width="6.5" height="6.5" />
<rect x="422" y="70" width="6.5" height="6.5" />
<rect x="422" y="77" width="6.5" height="6.5" />
<rect x="436" y="77" width="6.5" height="6.5" />
<rect x="443" y="77" width="6.5" height="6.5" />
<rect x="450" y="77" width="6.5" height="6.5" />
<rect x="422" y="84" width="6.5" height="6.5" />
<rect x="450" y="84" width="6.5" height="6.5" />
<rect x="422" y="91" width="6.5" height="6.5" />
<rect x="450" y="91" width="6.5" height="6.5" />
<rect x="429" y="98" width="6.5" height="6.5" />
<rect x="436" y="98" width="6.5" height="6.5" />
<rect x="443" y="98" width="6.5" height="6.5" />
<rect x="450" y="98" width="6.5" height="6.5" />
<rect x="471" y="56" width="6.5" height="6.5" />
<rect x="478" y="56" width="6.5" height="6.5" />
<rect x="485" y="56" width="6.5" height="6.5" />
<rect x="492" y="56" width="6.5" height="6.5" />
<rect x="471" y="63" width="6.5" height="6.5" />
<rect x="499" y="63" width="6.5" height="6.5" />
<rect x="471" y="70" width="6.5" height="6.5" />
<rect x="499" y="70" width="6.5" height="6.5" />
<rect x="471" y="77" width="6.5" height="6.5" />
<rect x="478" y="77" width="6.5" height="6.5" />
<rect x="485" y="77" width="6.5" height="6.5" />
<rect x="492" y="77" width="6.5" height="6.5" />
<rect x="471" y="84" width="6.5" height="6.5" />
<rect x="492" y="84" width="6.5" height="6.5" />
<rect x="471" y="91" width="6.5" height="6.5" />
<rect x="499" y="91" width="6.5" height="6.5" />
<rect x="471" y="98" width="6.5" height="6.5" />
<rect x="499" y="98" width="6.5" height="6.5" />
<rect x="527" y="56" width="6.5" height="6.5" />
<rect x="534" y="56" width="6.5" height="6.5" />
<rect x="541" y="56" width="6.5" height="6.5" />
<rect x="520" y="63" width="6.5" height="6.5" />
<rect x="548" y="63" width="6.5" height="6.5" />
<rect x="520" y="70" width="6.5" height="6.5" />
<rect x="548" y="70" width="6.5" height="6.5" />
<rect x="520" y="77" width="6.5" height="6.5" />
<rect x="527" y="77" width="6.5" height="6.5" />
<rect x="534" y="77" width="6.5" height="6.5" />
<rect x="541" y="77" width="6.5" height="6.5" />
<rect x="548" y="77" width="6.5" height="6.5" />
<rect x="520" y="84" width="6.5" height="6.5" />
<rect x="548" y="84" width="6.5" height="6.5" />
<rect x="520" y="91" width="6.5" height="6.5" />
<rect x="548" y="91" width="6.5" height="6.5" />
<rect x="520" y="98" width="6.5" height="6.5" />
<rect x="548" y="98" width="6.5" height="6.5" />
<rect x="569" y="56" width="6.5" height="6.5" />
<rect x="597" y="56" width="6.5" height="6.5" />
<rect x="569" y="63" width="6.5" height="6.5" />
<rect x="597" y="63" width="6.5" height="6.5" />
<rect x="569" y="70" width="6.5" height="6.5" />
<rect x="597" y="70" width="6.5" height="6.5" />
<rect x="569" y="77" width="6.5" height="6.5" />
<rect x="597" y="77" width="6.5" height="6.5" />
<rect x="576" y="84" width="6.5" height="6.5" />
<rect x="590" y="84" width="6.5" height="6.5" />
<rect x="576" y="91" width="6.5" height="6.5" />
<rect x="590" y="91" width="6.5" height="6.5" />
<rect x="583" y="98" width="6.5" height="6.5" />
<rect x="618" y="56" width="6.5" height="6.5" />
<rect x="625" y="56" width="6.5" height="6.5" />
<rect x="632" y="56" width="6.5" height="6.5" />
<rect x="625" y="63" width="6.5" height="6.5" />
<rect x="625" y="70" width="6.5" height="6.5" />
<rect x="625" y="77" width="6.5" height="6.5" />
<rect x="625" y="84" width="6.5" height="6.5" />
<rect x="625" y="91" width="6.5" height="6.5" />
<rect x="618" y="98" width="6.5" height="6.5" />
<rect x="625" y="98" width="6.5" height="6.5" />
<rect x="632" y="98" width="6.5" height="6.5" />
<rect x="653" y="56" width="6.5" height="6.5" />
<rect x="660" y="56" width="6.5" height="6.5" />
<rect x="667" y="56" width="6.5" height="6.5" />
<rect x="674" y="56" width="6.5" height="6.5" />
<rect x="681" y="56" width="6.5" height="6.5" />
<rect x="667" y="63" width="6.5" height="6.5" />
<rect x="667" y="70" width="6.5" height="6.5" />
<rect x="667" y="77" width="6.5" height="6.5" />
<rect x="667" y="84" width="6.5" height="6.5" />
<rect x="667" y="91" width="6.5" height="6.5" />
<rect x="667" y="98" width="6.5" height="6.5" />
<rect x="702" y="56" width="6.5" height="6.5" />
<rect x="730" y="56" width="6.5" height="6.5" />
<rect x="702" y="63" width="6.5" height="6.5" />
<rect x="730" y="63" width="6.5" height="6.5" />
<rect x="709" y="70" width="6.5" height="6.5" />
<rect x="723" y="70" width="6.5" height="6.5" />
<rect x="716" y="77" width="6.5" height="6.5" />
<rect x="716" y="84" width="6.5" height="6.5" />
<rect x="716" y="91" width="6.5" height="6.5" />
<rect x="716" y="98" width="6.5" height="6.5" />

  </g>
</svg>